<svg id="Capa_1" data-name="Capa 1" xmlns="http://www.w3.org/2000/svg" viewBox="0 0 33.12 8.59"><defs><style>.cls-1{fill:#4467af;}</style></defs><path class="cls-1" d="M175.15,330.74a2.16,2.16,0,0,1,.5,1.54v1.1a2.16,2.16,0,0,1-.5,1.54,1.88,1.88,0,0,1-1.47.53h-.63v3.16h-1.32v-8.4h2A1.88,1.88,0,0,1,175.15,330.74Zm-2.1,3.51h.63a.63.63,0,0,0,.49-.18,1,1,0,0,0,.16-.61V332.2a1,1,0,0,0-.16-.61.63.63,0,0,0-.49-.18h-.63Z" transform="translate(-171.73 -330.11)"/><path class="cls-1" d="M179.28,338.23c0-.13,0-.34,0-.65v-1.32a1.24,1.24,0,0,0-.21-.82.78.78,0,0,0-.66-.25h-.45v3.42h-1.32v-8.4h2a2,2,0,0,1,1.49.47,2,2,0,0,1,.47,1.46v.66a1.67,1.67,0,0,1-.87,1.7,1.22,1.22,0,0,1,.67.65,2.7,2.7,0,0,1,.21,1.14v1.3c0,.24,0,.43,0,.58a1.8,1.8,0,0,0,.12.44h-1.34A2.4,2.4,0,0,1,179.28,338.23ZM177.94,334h.51a.78.78,0,0,0,.6-.21,1,1,0,0,0,.2-.68v-.83a1.07,1.07,0,0,0-.17-.66.61.61,0,0,0-.51-.2h-.63Z" transform="translate(-171.73 -330.11)"/><path class="cls-1" d="M184.87,333.75V335h-1.81v2.46h2.28v1.2h-3.6v-8.4h3.6v1.2h-2.28v2.34Z" transform="translate(-171.73 -330.11)"/><path class="cls-1" d="M186.78,330.66a1.83,1.83,0,0,1,1.45-.55,1.86,1.86,0,0,1,1.46.55,2.29,2.29,0,0,1,.49,1.57v.26h-1.25v-.35a1,1,0,0,0-.17-.63.7.7,0,0,0-1,0,1,1,0,0,0-.17.63,1.52,1.52,0,0,0,.28.92,5.23,5.23,0,0,0,.85.9,10.29,10.29,0,0,1,.75.77,3,3,0,0,1,.5.79,2.79,2.79,0,0,1,.2,1.07,2.28,2.28,0,0,1-.5,1.57,1.93,1.93,0,0,1-1.47.55,1.89,1.89,0,0,1-1.46-.55,2.23,2.23,0,0,1-.51-1.57v-.51h1.25v.6q0,.81.69.81c.45,0,.68-.27.68-.81a1.55,1.55,0,0,0-.28-.93,6.08,6.08,0,0,0-.85-.9,10.4,10.4,0,0,1-.75-.76,3,3,0,0,1-.5-.8,2.74,2.74,0,0,1-.2-1.06A2.24,2.24,0,0,1,186.78,330.66Z" transform="translate(-171.73 -330.11)"/><path class="cls-1" d="M194.19,338.61l-.23-1.53h-1.62l-.23,1.53H190.9l1.34-8.4h1.93l1.35,8.4Zm-.41-2.67-.64-4.24-.63,4.24Z" transform="translate(-171.73 -330.11)"/><path class="cls-1" d="M199.13,330.21h1.21l-1.29,8.4h-2l-1.3-8.4h1.33l1,6.85Z" transform="translate(-171.73 -330.11)"/><path class="cls-1" d="M204.39,333.75V335h-1.82v2.46h2.28v1.2h-3.6v-8.4h3.6v1.2h-2.28v2.34Z" transform="translate(-171.73 -330.11)"/></svg>